<svg xmlns="http://www.w3.org/2000/svg" width="45" height="45" viewBox="0 0 45 45" fill="none">
  <g clip-path="url(#clip0_11_3471)">
    <path d="M14.3958 20.6581C14.3958 19.9113 13.7902 19.3061 13.0435 19.3061H6.03869C5.29162 19.3061 4.68634 19.9113 4.68634 20.6581V39.5913H14.3958V20.6581Z" fill="#4E7D96"/>
    <path d="M40.4746 13.0143C40.4746 12.2673 39.869 11.662 39.1223 11.662H32.1175C31.3708 11.662 30.7651 12.2673 30.7651 13.0143V39.5913H40.4746V13.0143Z" fill="#4E7D96"/>
    <path d="M27.4352 23.142C27.4352 22.3953 26.83 21.7897 26.0832 21.7897H19.0781C18.3314 21.7897 17.7261 22.3953 17.7261 23.142V39.5913H27.4352V23.142Z" fill="#4E7D96"/>
    <path d="M41.6121 42.2957H3.54961C2.80254 42.2957 2.19727 42.9009 2.19727 43.6477C2.19727 44.3947 2.80254 45 3.54961 45H41.6121C42.3588 45 42.9644 44.3947 42.9644 43.6477C42.9644 42.9009 42.3588 42.2957 41.6121 42.2957Z" fill="#4E7D96"/>
    <path d="M11.6335 15.4921C11.6733 15.4921 11.7138 15.4904 11.754 15.4869C11.8762 15.476 14.7931 15.2061 18.9339 13.7391C22.7358 12.3919 28.3509 9.72839 33.5117 4.68876C33.5375 4.6637 33.5608 4.63726 33.5842 4.61048V6.69136C33.5842 7.43843 34.1894 8.04371 34.9362 8.04371C35.6829 8.04371 36.2885 7.43843 36.2885 6.69136V1.35235C36.2885 0.605278 35.6829 0 34.9362 0H29.5968C28.8501 0 28.2448 0.605278 28.2448 1.35235C28.2448 2.09908 28.8501 2.70435 29.5968 2.70435H31.6787C31.6598 2.72083 31.6403 2.73628 31.6221 2.75414C26.8427 7.42161 21.6413 9.90074 18.1195 11.1583C14.2812 12.5292 11.5418 12.7905 11.5147 12.7929C10.7717 12.8595 10.2228 13.5152 10.2883 14.2585C10.3505 14.9623 10.9406 15.4921 11.6335 15.4921Z" fill="#4E7D96"/>
  </g>
  <defs>
    <clipPath id="clip0_11_3471">
      <rect width="45" height="45" fill="white"/>
    </clipPath>
  </defs>
</svg>