<svg width="45" height="45" viewBox="0 0 45 45" fill="none" xmlns="http://www.w3.org/2000/svg">
<g clip-path="url(#clip0_36_0)">
<path d="M39.2788 26.3469C38.7634 19.6356 35.6387 15.43 32.8821 11.7187C30.3296 8.28289 28.125 5.31588 28.125 0.939106C28.125 0.587543 27.9281 0.266215 27.6159 0.105112C27.3028 -0.0569587 26.9265 -0.0304157 26.6418 0.176479C22.5018 3.13892 19.0476 8.1319 17.8409 12.8959C17.0032 16.2127 16.8924 19.9413 16.8768 22.4039C13.0536 21.5873 12.1875 15.8685 12.1784 15.8062C12.1353 15.5095 11.9541 15.2514 11.6904 15.1104C11.424 14.9713 11.1109 14.9612 10.8408 15.0949C10.6403 15.1919 5.91978 17.5904 5.64513 27.1671C5.62588 27.4857 5.625 27.8053 5.625 28.1247C5.625 37.4286 13.1955 44.9986 22.5 44.9986C22.5128 44.9995 22.5265 45.0013 22.5375 44.9986C22.5412 44.9986 22.5448 44.9986 22.5494 44.9986C31.8311 44.972 39.375 37.4121 39.375 28.1247C39.375 27.6569 39.2788 26.3469 39.2788 26.3469ZM22.5 43.1237C19.3982 43.1237 16.875 40.4359 16.875 37.132C16.875 37.0194 16.8741 36.9059 16.8823 36.7668C16.9198 35.3734 17.1845 34.4223 17.4747 33.7896C18.0185 34.9578 18.9908 36.0316 20.5701 36.0316C21.0883 36.0316 21.5076 35.6123 21.5076 35.0942C21.5076 33.7595 21.5351 32.2196 21.8675 30.8299C22.1632 29.5977 22.8699 28.2867 23.7654 27.2358C24.1636 28.5999 24.94 29.7039 25.6981 30.7814C26.783 32.323 27.9045 33.9169 28.1014 36.6349C28.1132 36.796 28.1252 36.9581 28.1252 37.132C28.125 40.4358 25.6018 43.1237 22.5 43.1237Z" fill="white"/>
</g>
<defs>
<clipPath id="clip0_36_0">
<rect width="45" height="45" fill="white"/>
</clipPath>
</defs>
</svg>
