<svg width="45" height="45" viewBox="0 0 45 45" fill="none" xmlns="http://www.w3.org/2000/svg">
<path d="M33.0469 2.90039C27.7155 2.90039 24.2934 6.59285 22.5 9.91837C20.7066 6.59276 17.2845 2.90039 11.9531 2.90039C5.1888 2.90039 0 8.38881 0 15.6681C0 17.5674 0.380303 19.3209 1.08053 21.0059H11.1382L13.4105 16.4611C13.8586 15.5676 15.3211 15.5676 15.7692 16.4611L19.8633 24.6495L21.3207 21.7346C21.7687 20.8412 23.2313 20.8412 23.6793 21.7346L25.1367 24.6495L29.2308 16.4612C29.6789 15.5677 31.1414 15.5677 31.5895 16.4612L33.8618 21.0059H43.9195C44.6197 19.3209 45 17.5674 45 15.6681C45 8.38881 39.8112 2.90039 33.0469 2.90039Z" fill="white"/>
<path d="M33.0469 23.6425C32.5473 23.6425 32.0916 23.3606 31.8675 22.9138L30.4101 19.999L26.316 28.1873C26.092 28.634 25.6363 28.916 25.1367 28.916C24.6371 28.916 24.1814 28.634 23.9574 28.1873L22.5 25.2725L21.0426 28.1873C20.5945 29.0808 19.132 29.0808 18.6839 28.1873L14.5898 19.999L13.1324 22.9138C12.9084 23.3606 12.4527 23.6425 11.9531 23.6425H2.46417C5.17762 27.9117 10.0644 31.9669 16.1772 37.1261C17.8934 38.5744 19.719 40.1156 21.636 41.7777C21.8845 41.9927 22.1922 42.0995 22.4999 42.0995C22.8076 42.0995 23.1153 41.9927 23.3638 41.7777C25.2808 40.1156 27.1064 38.5745 28.8226 37.1261C34.9355 31.9669 39.8222 27.9117 42.5356 23.6425H33.0469Z" fill="white"/>
</svg>
