<svg width="45" height="45" viewBox="0 0 45 45" fill="none" xmlns="http://www.w3.org/2000/svg">
<path d="M29.19 43.0615C29.5885 43.0885 29.9884 43.0368 30.3669 42.9093C30.7454 42.7818 31.0951 42.581 31.3959 42.3183C31.6968 42.0556 31.943 41.7363 32.1204 41.3785C32.2978 41.0206 32.403 40.6314 32.43 40.2329L32.5635 38.2632L26.6464 35.6177L26.3615 39.8219C26.3079 40.6264 26.5757 41.4192 27.106 42.0265C27.6362 42.6338 28.3857 43.006 29.19 43.0615Z" fill="white"/>
<path d="M27.056 30.9683L33.323 33.918L35.352 26.6534C36.8042 19.97 35.9063 14.9763 32.8879 12.9512C31.1176 11.7632 29.2015 12.0052 28.0879 12.7724C28.0753 12.7811 28.0623 12.7891 28.049 12.7967C28.0403 12.8016 27.0407 13.3867 26.164 14.6827C24.995 16.4097 24.5814 18.525 24.9335 20.9702L27.056 30.9683Z" fill="white"/>
<path d="M18.326 25.4268L12.4037 28.0616L12.5332 30.0318C12.5594 30.4303 12.6639 30.8198 12.8407 31.1779C13.0175 31.5361 13.2631 31.8559 13.5634 32.1191C13.8638 32.3823 14.2131 32.5838 14.5913 32.7121C14.9695 32.8403 15.3693 32.8928 15.7679 32.8666C16.1664 32.8403 16.5558 32.7358 16.914 32.5591C17.2721 32.3823 17.5919 32.1367 17.8552 31.8363C18.1184 31.536 18.3199 31.1867 18.4482 30.8085C18.5764 30.4302 18.6289 30.0304 18.6026 29.6319L18.326 25.4268Z" fill="white"/>
<path d="M11.6525 23.7153L17.9251 20.7773L20.0666 10.7828C20.423 8.33833 20.013 6.22237 18.8478 4.49312C17.9734 3.1955 16.9746 2.60848 16.9647 2.60277C16.9524 2.59565 16.939 2.58712 16.9273 2.57913C15.8153 1.81008 13.8997 1.56434 12.127 2.74902C9.10473 4.76866 8.19761 9.76075 9.63726 16.4469L11.6525 23.7153Z" fill="white"/>
</svg>
