<svg width="412" height="3" viewBox="0 0 412 3" fill="none" xmlns="http://www.w3.org/2000/svg">
<path d="M7.49999 1.39999L12.5 1.29999C12.6 1.29999 12.7 1.39999 12.7 1.49999C12.7 1.59999 12.6 1.69999 12.5 1.69999L7.49999 1.59999C7.39999 1.59999 7.39999 1.49999 7.39999 1.49999C7.39999 1.39999 7.49999 1.39999 7.49999 1.39999Z" fill="#4E7D96" fill-opacity="0.5"/>
<path d="M17.6 1.19998L22.6 1.09998C22.8 1.09998 23 1.29998 23 1.39998C23 1.59998 22.8 1.79998 22.7 1.79998L17.7 1.69998C17.5 1.69998 17.4 1.59998 17.4 1.39998C17.3 1.29998 17.4 1.19998 17.6 1.19998Z" fill="#4E7D96" fill-opacity="0.5"/>
<path d="M27.6 1.1L32.6 1C32.9 1 33.1 1.2 33.1 1.5C33.1 1.8 32.9 2 32.6 2L27.6 1.9C27.4 1.9 27.2 1.7 27.2 1.5C27.2 1.3 27.4 1.1 27.6 1.1Z" fill="#4E7D96" fill-opacity="0.5"/>
<path d="M37.7 0.899988L42.7 0.799988C43 0.799988 43.3 1.09999 43.3 1.39999C43.3 1.69999 43 1.99999 42.7 1.99999L37.7 1.89999C37.4 1.89999 37.2 1.59999 37.2 1.29999C37.1 1.19999 37.4 0.899988 37.7 0.899988Z" fill="#4E7D96" fill-opacity="0.5"/>
<path d="M47.7 0.800012L52.7 0.700012C53.1 0.700012 53.5 1.00001 53.5 1.40001C53.5 1.80001 53.2 2.20001 52.8 2.20001L47.8 2.10001C47.4 2.10001 47.1 1.80001 47.1 1.40001C47 1.10001 47.3 0.800012 47.7 0.800012Z" fill="#4E7D96" fill-opacity="0.5"/>
<path d="M57.7 0.700012H62.7C63.2 0.700012 63.5 1.10001 63.5 1.50001C63.5 2.00001 63.1 2.30001 62.7 2.30001H57.7C57.3 2.30001 56.9 1.90001 56.9 1.50001C57 1.10001 57.3 0.700012 57.7 0.700012Z" fill="#4E7D96" fill-opacity="0.5"/>
<path d="M67.8 0.599976H72.8C73.3 0.599976 73.7 0.999976 73.7 1.49998C73.7 1.99998 73.3 2.39998 72.8 2.39998H67.8C67.3 2.39998 66.9 1.99998 66.9 1.49998C66.9 0.999976 67.3 0.599976 67.8 0.599976Z" fill="#4E7D96" fill-opacity="0.5"/>
<path d="M77.8 0.5H82.8C83.3 0.5 83.8 0.9 83.8 1.5C83.8 2 83.4 2.5 82.8 2.5H77.8C77.3 2.5 76.9 2.1 76.9 1.5C76.9 1 77.3 0.6 77.8 0.5Z" fill="#4E7D96" fill-opacity="0.5"/>
<path d="M87.9 0.5H92.9C93.5 0.5 94 1 94 1.6C94 2.2 93.5 2.7 92.9 2.7H87.9C87.3 2.7 86.9 2.2 86.9 1.7C86.9 0.9 87.3 0.5 87.9 0.5Z" fill="#4E7D96" fill-opacity="0.5"/>
<path d="M97.9 0.400024H102.9C103.5 0.400024 104.1 0.900024 104.1 1.50002C104.1 2.10002 103.6 2.70002 103 2.70002H98C97.4 2.70002 96.9 2.20002 96.9 1.60002C96.8 0.900024 97.3 0.400024 97.9 0.400024Z" fill="#4E7D96" fill-opacity="0.5"/>
<path d="M108 0.299988H113C113.7 0.299988 114.2 0.799988 114.2 1.49999C114.2 2.19999 113.7 2.69999 113 2.69999H108C107.3 2.69999 106.8 2.19999 106.8 1.49999C106.8 0.799988 107.3 0.299988 108 0.299988Z" fill="#4E7D96" fill-opacity="0.5"/>
<path d="M118 0.200012H123C123.7 0.200012 124.3 0.800012 124.3 1.50001C124.3 2.20001 123.7 2.80001 123 2.80001H118C117.3 2.80001 116.7 2.20001 116.7 1.50001C116.7 0.800012 117.3 0.200012 118 0.200012Z" fill="#4E7D96" fill-opacity="0.5"/>
<path d="M128 0.200012H133C133.7 0.200012 134.3 0.800012 134.3 1.50001C134.3 2.20001 133.7 2.80001 133 2.80001H128C127.3 2.80001 126.7 2.20001 126.7 1.50001C126.8 0.800012 127.3 0.200012 128 0.200012Z" fill="#4E7D96" fill-opacity="0.5"/>
<path d="M138.1 0.200012H143.1C143.8 0.200012 144.4 0.800012 144.4 1.50001C144.4 2.20001 143.8 2.80001 143.1 2.80001H138.1C137.4 2.80001 136.8 2.20001 136.8 1.50001C136.8 0.800012 137.4 0.200012 138.1 0.200012Z" fill="#4E7D96" fill-opacity="0.5"/>
<path d="M148.1 0.0999756H153.1C153.9 0.0999756 154.5 0.699976 154.5 1.49998C154.5 2.29998 153.9 2.89998 153.1 2.89998H148.1C147.4 2.89998 146.8 2.29998 146.8 1.59998C146.8 0.799976 147.4 0.199976 148.1 0.0999756Z" fill="#4E7D96" fill-opacity="0.5"/>
<path d="M158.2 0.0999756H163.2C164 0.0999756 164.6 0.699976 164.6 1.49998C164.6 2.29998 164 2.89998 163.2 2.89998H158.2C157.4 2.89998 156.8 2.29998 156.8 1.49998C156.8 0.699976 157.4 0.0999756 158.2 0.0999756Z" fill="#4E7D96" fill-opacity="0.5"/>
<path d="M168.2 0.0999756H173.2C174 0.0999756 174.6 0.699976 174.6 1.49998C174.6 2.29998 174 2.89998 173.2 2.89998H168.2C167.4 2.89998 166.8 2.29998 166.8 1.49998C166.8 0.699976 167.4 0.0999756 168.2 0.0999756Z" fill="#4E7D96" fill-opacity="0.5"/>
<path d="M178.3 0.0999756H183.3C184.1 0.0999756 184.7 0.699976 184.7 1.49998C184.7 2.29998 184.1 2.89998 183.3 2.89998H178.3C177.5 2.89998 176.9 2.29998 176.9 1.49998C176.8 0.699976 177.5 0.0999756 178.3 0.0999756Z" fill="#4E7D96" fill-opacity="0.5"/>
<path d="M188.3 0H193.3C194.1 0 194.8 0.7 194.8 1.5C194.8 2.3 194.1 3 193.3 3H188.3C187.5 3 186.8 2.3 186.9 1.5C186.9 0.7 187.5 0 188.3 0Z" fill="#4E7D96" fill-opacity="0.5"/>
<path d="M198.3 0H203.3C204.1 0 204.8 0.7 204.8 1.5C204.8 2.3 204.2 3 203.4 3H198.4C197.6 3 196.9 2.3 196.9 1.5C196.9 0.7 197.5 0 198.3 0Z" fill="#4E7D96" fill-opacity="0.5"/>
<path d="M208.4 0H213.4C214.2 0 214.9 0.7 214.9 1.5C214.9 2.3 214.2 3 213.4 3H208.4C207.6 3 206.9 2.3 206.9 1.5C206.9 0.7 207.6 0 208.4 0Z" fill="#4E7D96" fill-opacity="0.5"/>
<path d="M218.4 0H223.4C224.2 0 224.9 0.7 224.9 1.5C224.9 2.3 224.2 2.9 223.4 3H218.4C217.6 3 216.9 2.3 216.9 1.5C217 0.7 217.6 0 218.4 0Z" fill="#4E7D96" fill-opacity="0.5"/>
<path d="M228.5 0.0999756H233.5C234.3 0.0999756 234.9 0.699976 234.9 1.49998C234.9 2.29998 234.3 2.89998 233.5 2.89998H228.5C227.7 2.89998 227.1 2.29998 227.1 1.49998C227 0.699976 227.7 0.0999756 228.5 0.0999756Z" fill="#4E7D96" fill-opacity="0.5"/>
<path d="M238.5 0.0999756H243.5C244.3 0.0999756 244.9 0.699976 244.9 1.49998C244.9 2.29998 244.3 2.89998 243.5 2.89998H238.5C237.7 2.89998 237.1 2.29998 237.1 1.49998C237.1 0.699976 237.7 0.0999756 238.5 0.0999756Z" fill="#4E7D96" fill-opacity="0.5"/>
<path d="M248.6 0.0999756H253.6C254.4 0.0999756 255 0.699976 255 1.49998C255 2.29998 254.4 2.89998 253.6 2.89998H248.6C247.8 2.89998 247.2 2.29998 247.2 1.49998C247.2 0.699976 247.8 0.0999756 248.6 0.0999756Z" fill="#4E7D96" fill-opacity="0.5"/>
<path d="M258.6 0.0999756H263.6C264.3 0.0999756 264.9 0.699976 264.9 1.49998C264.9 2.19998 264.3 2.79998 263.6 2.79998H258.6C257.8 2.79998 257.2 2.19998 257.2 1.39998C257.2 0.699976 257.9 0.0999756 258.6 0.0999756Z" fill="#4E7D96" fill-opacity="0.5"/>
<path d="M268.7 0.200012H273.7C274.4 0.200012 275 0.800012 275 1.50001C275 2.20001 274.4 2.80001 273.7 2.80001H268.7C268 2.80001 267.4 2.20001 267.4 1.50001C267.4 0.800012 267.9 0.200012 268.7 0.200012Z" fill="#4E7D96" fill-opacity="0.5"/>
<path d="M278.7 0.200012H283.7C284.4 0.200012 285 0.800012 285 1.50001C285 2.20001 284.4 2.80001 283.7 2.80001H278.7C278 2.80001 277.4 2.20001 277.4 1.50001C277.4 0.800012 278 0.200012 278.7 0.200012Z" fill="#4E7D96" fill-opacity="0.5"/>
<path d="M288.7 0.200012H293.7C294.4 0.200012 295 0.800012 295 1.50001C295 2.20001 294.4 2.80001 293.7 2.80001H288.7C288 2.80001 287.4 2.20001 287.4 1.50001C287.4 0.800012 288 0.200012 288.7 0.200012Z" fill="#4E7D96" fill-opacity="0.5"/>
<path d="M298.8 0.299988H303.8C304.5 0.299988 305 0.799988 305 1.49999C305 2.19999 304.5 2.69999 303.8 2.69999H298.8C298.1 2.69999 297.6 2.19999 297.6 1.49999C297.5 0.799988 298.1 0.299988 298.8 0.299988Z" fill="#4E7D96" fill-opacity="0.5"/>
<path d="M308.8 0.299988H313.8C314.4 0.299988 314.9 0.799988 314.9 1.39999C314.9 1.99999 314.4 2.49999 313.8 2.49999H308.8C308.2 2.49999 307.6 1.99999 307.6 1.39999C307.6 0.799988 308.2 0.299988 308.8 0.299988Z" fill="#4E7D96" fill-opacity="0.5"/>
<path d="M318.9 0.400024H323.9C324.5 0.400024 324.9 0.900024 324.9 1.40002C324.9 2.00002 324.4 2.40002 323.9 2.40002H318.9C318.3 2.40002 317.8 1.90002 317.8 1.30002C317.8 0.900024 318.3 0.400024 318.9 0.400024Z" fill="#4E7D96" fill-opacity="0.5"/>
<path d="M328.9 0.5H333.9C334.4 0.5 334.8 0.9 334.8 1.5C334.8 2 334.4 2.4 333.9 2.4H328.9C328.4 2.4 327.9 2 327.9 1.4C327.9 0.8 328.4 0.5 328.9 0.5Z" fill="#4E7D96" fill-opacity="0.5"/>
<path d="M339 0.599976H344C344.5 0.599976 344.9 0.999976 344.9 1.49998C344.9 1.99998 344.5 2.39998 344 2.39998H339C338.5 2.39998 338.1 1.99998 338.1 1.49998C338 0.999976 338.4 0.599976 339 0.599976C339 0.599976 338.9 0.599976 339 0.599976Z" fill="#4E7D96" fill-opacity="0.5"/>
<path d="M349 0.700012H354C354.4 0.700012 354.8 1.10001 354.8 1.50001C354.8 1.90001 354.4 2.30001 354 2.30001H349C348.5 2.30001 348.2 1.90001 348.2 1.50001C348.2 1.00001 348.5 0.700012 349 0.700012Z" fill="#4E7D96" fill-opacity="0.5"/>
<path d="M359 0.700012L364 0.800012C364.4 0.800012 364.7 1.10001 364.7 1.50001C364.7 1.90001 364.4 2.20001 364 2.20001L359 2.30001C358.6 2.30001 358.2 2.00001 358.2 1.60001C358.3 1.10001 358.6 0.700012 359 0.700012Z" fill="#4E7D96" fill-opacity="0.5"/>
<path d="M369.1 0.900024L374.1 1.00002C374.4 1.00002 374.7 1.30002 374.6 1.60002C374.6 1.90002 374.4 2.10002 374.1 2.10002L369.1 2.20002C368.8 2.20002 368.5 1.90002 368.5 1.60002C368.5 1.20002 368.7 0.900024 369.1 0.900024Z" fill="#4E7D96" fill-opacity="0.5"/>
<path d="M379.1 1L384.1 1.1C384.3 1.1 384.5 1.3 384.5 1.5C384.5 1.7 384.3 1.9 384.1 1.9L379.1 2C378.8 2 378.6 1.8 378.6 1.5C378.6 1.2 378.9 1 379.1 1Z" fill="#4E7D96" fill-opacity="0.5"/>
<path d="M389.2 1.09998L394.2 1.19998C394.4 1.19998 394.5 1.29998 394.5 1.49998C394.5 1.69998 394.4 1.79998 394.2 1.79998L389.2 1.89998C389 1.89998 388.8 1.69998 388.8 1.49998C388.8 1.29998 389 1.09998 389.2 1.09998Z" fill="#4E7D96" fill-opacity="0.5"/>
<path d="M399.2 1.29999L404.2 1.39999C404.3 1.39999 404.3 1.49999 404.3 1.49999C404.3 1.59999 404.2 1.59999 404.2 1.59999L399.2 1.69999C399.1 1.69999 399 1.59999 399 1.49999C399 1.39999 399.1 1.29999 399.2 1.29999Z" fill="#4E7D96" fill-opacity="0.5"/>
</svg>
